HIERARCHY
ROOT Hips
{
  OFFSET -149.447 72.2028 470.672
  CHANNELS 6 Xposition Yposition Zposition Zrotation Xrotation Yrotation
  JOINT Spine
  {
    OFFSET 0 8 -1.42706e-05
    CHANNELS 6 Xposition Yposition Zposition Zrotation Xrotation Yrotation
    JOINT Spine1
    {
      OFFSET 0 8 1.86679e-05
      CHANNELS 6 Xposition Yposition Zposition Zrotation Xrotation Yrotation
      JOINT Spine2
      {
        OFFSET 2.04324e-05 8 0
        CHANNELS 6 Xposition Yposition Zposition Zrotation Xrotation Yrotation
        JOINT Spine3
        {
          OFFSET 0 8 0
          CHANNELS 6 Xposition Yposition Zposition Zrotation Xrotation Yrotation
          JOINT Neck
          {
            OFFSET -0.000137495 17 5.0987e-05
            CHANNELS 6 Xposition Yposition Zposition Zrotation Xrotation Yrotation
            JOINT Head
            {
              OFFSET 0 10.8 2.06994e-05
              CHANNELS 6 Xposition Yposition Zposition Zrotation Xrotation Yrotation
              End Site
              {
                OFFSET 0 20.25 0
              }
            }
          }
          JOINT LeftShoulder
          {
            OFFSET 4.99986 17 -0.000249205
            CHANNELS 6 Xposition Yposition Zposition Zrotation Xrotation Yrotation
            JOINT LeftShoulder2
            {
              OFFSET 6.45 0 0
              CHANNELS 6 Xposition Yposition Zposition Zrotation Xrotation Yrotation
              JOINT LeftArm
              {
                OFFSET 6.44998 9.2175e-05 0
                CHANNELS 6 Xposition Yposition Zposition Zrotation Xrotation Yrotation
                JOINT LeftForeArm
                {
                  OFFSET 0 -32.4 -2
                  CHANNELS 6 Xposition Yposition Zposition Zrotation Xrotation Yrotation
                  JOINT LeftHand
                  {
                    OFFSET -1.12788e-05 -25.65 2.00001
                    CHANNELS 6 Xposition Yposition Zposition Zrotation Xrotation Yrotation
                    JOINT LeftHandThumb1
                    {
                      OFFSET -0.49998 -1.49997 2.64999
                      CHANNELS 6 Xposition Yposition Zposition Zrotation Xrotation Yrotation
                      JOINT LeftHandThumb2
                      {
                        OFFSET 0 -3.80001 3.7
                        CHANNELS 6 Xposition Yposition Zposition Zrotation Xrotation Yrotation
                        JOINT LeftHandThumb3
                        {
                          OFFSET -1.69262e-05 -3.00005 2.70001
                          CHANNELS 6 Xposition Yposition Zposition Zrotation Xrotation Yrotation
                          End Site
                          {
                            OFFSET 1.72651e-05 -2.29998 1.79999
                          }
                        }
                      }
                    }
                    JOINT LeftHandIndex
                    {
                      OFFSET 1.26244e-05 -1.89999 1.59999
                      CHANNELS 6 Xposition Yposition Zposition Zrotation Xrotation Yrotation
                      JOINT LeftHandIndex1
                      {
                        OFFSET 0 -8.30002 1.9
                        CHANNELS 6 Xposition Yposition Zposition Zrotation Xrotation Yrotation
                        JOINT LeftHandIndex2
                        {
                          OFFSET 1.08529e-05 -4.49998 0
                          CHANNELS 6 Xposition Yposition Zposition Zrotation Xrotation Yrotation
                          JOINT LeftHandIndex3
                          {
                            OFFSET 0 -3.39995 -1.01941e-05
                            CHANNELS 6 Xposition Yposition Zposition Zrotation Xrotation Yrotation
                            End Site
                            {
                              OFFSET 0 -2.59998 1.03945e-05
                            }
                          }
                        }
                      }
                    }
                    JOINT LeftHandMiddle
                    {
                      OFFSET -0.249991 -2.19997 0.400002
                      CHANNELS 6 Xposition Yposition Zposition Zrotation Xrotation Yrotation
                      JOINT LeftHandMiddle1
                      {
                        OFFSET 0 -8.30002 0.999993
                        CHANNELS 6 Xposition Yposition Zposition Zrotation Xrotation Yrotation
                        JOINT LeftHandMiddle2
                        {
                          OFFSET 0 -4.65 0
                          CHANNELS 6 Xposition Yposition Zposition Zrotation Xrotation Yrotation
                          JOINT LeftHandMiddle3
                          {
                            OFFSET 0 -3.29999 0
                            CHANNELS 6 Xposition Yposition Zposition Zrotation Xrotation Yrotation
                            End Site
                            {
                              OFFSET 0 -2.7 0
                            }
                          }
                        }
                      }
                    }
                    JOINT LeftHandRing
                    {
                      OFFSET -0.499988 -2.14998 -0.800008
                      CHANNELS 6 Xposition Yposition Zposition Zrotation Xrotation Yrotation
                      JOINT LeftHandRing1
                      {
                        OFFSET 0 -7.75002 -0.200001
                        CHANNELS 6 Xposition Yposition Zposition Zrotation Xrotation Yrotation
                        JOINT LeftHandRing2
                        {
                          OFFSET 0 -3.79998 -1.51001e-05
                          CHANNELS 6 Xposition Yposition Zposition Zrotation Xrotation Yrotation
                          JOINT LeftHandRing3
                          {
                            OFFSET 0 -3.40001 1.95373e-05
                            CHANNELS 6 Xposition Yposition Zposition Zrotation Xrotation Yrotation
                            End Site
                            {
                              OFFSET 0 -2.6 0
                            }
                          }
                        }
                      }
                    }
                    JOINT LeftHandPinky
                    {
                      OFFSET -0.749986 -1.74998 -1.84999
                      CHANNELS 6 Xposition Yposition Zposition Zrotation Xrotation Yrotation
                      JOINT LeftHandPinky1
                      {
                        OFFSET 0 -7.15001 -1
                        CHANNELS 6 Xposition Yposition Zposition Zrotation Xrotation Yrotation
                        JOINT LeftHandPinky2
                        {
                          OFFSET 0 -3 0
                          CHANNELS 6 Xposition Yposition Zposition Zrotation Xrotation Yrotation
                          JOINT LeftHandPinky3
                          {
                            OFFSET -1.48275e-05 -2.35 0
                            CHANNELS 6 Xposition Yposition Zposition Zrotation Xrotation Yrotation
                            End Site
                            {
                              OFFSET 1.28936e-05 -2.1 0
                            }
                          }
                        }
                      }
                    }
                  }
                }
              }
            }
          }
          JOINT RightShoulder
          {
            OFFSET -5.00015 16.9999 0.000349524
            CHANNELS 6 Xposition Yposition Zposition Zrotation Xrotation Yrotation
            JOINT RightShoulder2
            {
              OFFSET -6.45 0 0
              CHANNELS 6 Xposition Yposition Zposition Zrotation Xrotation Yrotation
              JOINT RightArm
              {
                OFFSET -6.45 -9.93228e-05 -8.92357e-05
                CHANNELS 6 Xposition Yposition Zposition Zrotation Xrotation Yrotation
                JOINT RightForeArm
                {
                  OFFSET 0 -32.4 -1.99999
                  CHANNELS 6 Xposition Yposition Zposition Zrotation Xrotation Yrotation
                  JOINT RightHand
                  {
                    OFFSET 0 -25.65 2
                    CHANNELS 6 Xposition Yposition Zposition Zrotation Xrotation Yrotation
                    JOINT RightHandThumb1
                    {
                      OFFSET 0.500004 -1.49998 2.64999
                      CHANNELS 6 Xposition Yposition Zposition Zrotation Xrotation Yrotation
                      JOINT RightHandThumb2
                      {
                        OFFSET 0 -3.80001 3.70002
                        CHANNELS 6 Xposition Yposition Zposition Zrotation Xrotation Yrotation
                        JOINT RightHandThumb3
                        {
                          OFFSET 0 -3 2.7
                          CHANNELS 6 Xposition Yposition Zposition Zrotation Xrotation Yrotation
                          End Site
                          {
                            OFFSET 1.61533e-05 -2.29999 1.8
                          }
                        }
                      }
                    }
                    JOINT RightHandIndex
                    {
                      OFFSET 1.17559e-05 -1.89999 1.6
                      CHANNELS 6 Xposition Yposition Zposition Zrotation Xrotation Yrotation
                      JOINT RightHandIndex1
                      {
                        OFFSET 0 -8.29999 1.89999
                        CHANNELS 6 Xposition Yposition Zposition Zrotation Xrotation Yrotation
                        JOINT RightHandIndex2
                        {
                          OFFSET 0 -4.50001 1.20605e-05
                          CHANNELS 6 Xposition Yposition Zposition Zrotation Xrotation Yrotation
                          JOINT RightHandIndex3
                          {
                            OFFSET 0 -3.40001 0
                            CHANNELS 6 Xposition Yposition Zposition Zrotation Xrotation Yrotation
                            End Site
                            {
                              OFFSET 0 -2.6 0
                            }
                          }
                        }
                      }
                    }
                    JOINT RightHandMiddle
                    {
                      OFFSET 0.250003 -2.19999 0.399998
                      CHANNELS 6 Xposition Yposition Zposition Zrotation Xrotation Yrotation
                      JOINT RightHandMiddle1
                      {
                        OFFSET 0 -8.30001 1
                        CHANNELS 6 Xposition Yposition Zposition Zrotation Xrotation Yrotation
                        JOINT RightHandMiddle2
                        {
                          OFFSET 0 -4.64997 0
                          CHANNELS 6 Xposition Yposition Zposition Zrotation Xrotation Yrotation
                          JOINT RightHandMiddle3
                          {
                            OFFSET 0 -3.30001 0
                            CHANNELS 6 Xposition Yposition Zposition Zrotation Xrotation Yrotation
                            End Site
                            {
                              OFFSET 0 -2.7 0
                            }
                          }
                        }
                      }
                    }
                    JOINT RightHandRing
                    {
                      OFFSET 0.500011 -2.15 -0.799996
                      CHANNELS 6 Xposition Yposition Zposition Zrotation Xrotation Yrotation
                      JOINT RightHandRing1
                      {
                        OFFSET -1.15059e-05 -7.75001 -0.199999
                        CHANNELS 6 Xposition Yposition Zposition Zrotation Xrotation Yrotation
                        JOINT RightHandRing2
                        {
                          OFFSET 0 -3.8 0
                          CHANNELS 6 Xposition Yposition Zposition Zrotation Xrotation Yrotation
                          JOINT RightHandRing3
                          {
                            OFFSET 1.93288e-05 -3.39999 0
                            CHANNELS 6 Xposition Yposition Zposition Zrotation Xrotation Yrotation
                            End Site
                            {
                              OFFSET 0 -2.60001 0
                            }
                          }
                        }
                      }
                    }
                    JOINT RightHandPinky
                    {
                      OFFSET 0.750009 -1.75 -1.85
                      CHANNELS 6 Xposition Yposition Zposition Zrotation Xrotation Yrotation
                      JOINT RightHandPinky1
                      {
                        OFFSET 0 -7.14999 -1.00001
                        CHANNELS 6 Xposition Yposition Zposition Zrotation Xrotation Yrotation
                        JOINT RightHandPinky2
                        {
                          OFFSET 0 -3 0
                          CHANNELS 6 Xposition Yposition Zposition Zrotation Xrotation Yrotation
                          JOINT RightHandPinky3
                          {
                            OFFSET 0 -2.35 0
                            CHANNELS 6 Xposition Yposition Zposition Zrotation Xrotation Yrotation
                            End Site
                            {
                              OFFSET 0 -2.09999 0
                            }
                          }
                        }
                      }
                    }
                  }
                }
              }
            }
          }
        }
      }
    }
  }
  JOINT LeftUpLeg
  {
    OFFSET 8.00001 0 0
    CHANNELS 6 Xposition Yposition Zposition Zrotation Xrotation Yrotation
    JOINT LeftLeg
    {
      OFFSET -1.27993e-05 -45 -0.999959
      CHANNELS 6 Xposition Yposition Zposition Zrotation Xrotation Yrotation
      JOINT LeftFoot
      {
        OFFSET 0 -41 -2
        CHANNELS 6 Xposition Yposition Zposition Zrotation Xrotation Yrotation
        JOINT LeftToeBase
        {
          OFFSET 1.02361e-05 -7.5 12.5
          CHANNELS 6 Xposition Yposition Zposition Zrotation Xrotation Yrotation
          JOINT LeftFootToe
          {
            OFFSET 0 0 4
            CHANNELS 6 Xposition Yposition Zposition Zrotation Xrotation Yrotation
            End Site
            {
              OFFSET 0 0 0
            }
          }
        }
      }
    }
  }
  JOINT RightUpLeg
  {
    OFFSET -8.00001 0 0
    CHANNELS 6 Xposition Yposition Zposition Zrotation Xrotation Yrotation
    JOINT RightLeg
    {
      OFFSET 0 -45 -1.00002
      CHANNELS 6 Xposition Yposition Zposition Zrotation Xrotation Yrotation
      JOINT RightFoot
      {
        OFFSET 0 -41 -2
        CHANNELS 6 Xposition Yposition Zposition Zrotation Xrotation Yrotation
        JOINT RightToeBase
        {
          OFFSET 0 -7.50001 12.5
          CHANNELS 6 Xposition Yposition Zposition Zrotation Xrotation Yrotation
          JOINT RightFootToe
          {
            OFFSET 0 0 4
            CHANNELS 6 Xposition Yposition Zposition Zrotation Xrotation Yrotation
            End Site
            {
              OFFSET 0 0 0
            }
          }
        }
      }
    }
  }
}
MOTION
Frames:	3
Frame Time:	0.0111111
-149.448 72.1922 470.66 -6.91588 17.2957 -154.965 0 8 0 3.50402 14.3503 9.43114 0 8 0 1.77302 4.17254 9.69008 0 8 5.68434e-14 4.07068 5.0155 -34.2355 0 8 0 0.972234 2.04431 4.84376 -5.68434e-14 17 -5.68434e-14 7.44772 -1.5985 -22.4687 1.42109e-14 10.8 0 1.57399 -9.89272 -53.8019 5 17 0 -10.3348 -4.69999 10.8951 6.45 -1.42109e-14 5.68434e-14 1.13544 2.46587 -0.404253 6.45 2.84217e-14 0 42.4718 -35.1898 0.14927 0 -32.4 -2 -63.1845 -61.1709 -63.4517 -2.84217e-14 -25.65 2 44.8136 -9.85608 -42.7295 -0.5 -1.5 2.65 -12.0291 -21.4423 3.51227 -2.84217e-14 -3.8 3.7 -0.0728806 14.4258 0.0254289 0 -3 2.7 -0.00668106 -0.113557 0.00721848 5.68434e-14 -1.9 1.6 -1.83295e-06 5.42485e-06 -1.77501e-06 0 -8.3 1.9 -3.38815 15.1582 0.578557 -5.68434e-14 -4.5 5.68434e-14 -56.9644 4.93801e-05 0.0183564 0 -3.4 0 -39.6571 -0.00883342 0.0137598 -0.25 -2.2 0.4 -1.83295e-06 5.42485e-06 -1.77501e-06 -5.68434e-14 -8.3 1 -32.6478 20.1748 7.62955 0 -4.65 5.68434e-14 -43.9087 -0.0028628 0.00457285 8.52651e-14 -3.3 5.68434e-14 -30.5157 -0.00161641 -0.00239281 -0.5 -2.15 -0.8 -1.83295e-06 5.42485e-06 -1.77501e-06 5.68434e-14 -7.75 -0.2 -49.6571 19.3208 12.6987 -2.84217e-14 -3.8 0 -57.486 0.00449214 0.000930813 5.68434e-14 -3.4 0 -40.0323 0.00563816 0.00889031 -0.75 -1.75 -1.85 -1.83295e-06 5.42485e-06 -1.77501e-06 0 -7.15 -1 -76.5176 13.4467 19.3399 0 -3 0 -51.8035 -0.000966429 2.20567e-05 0 -2.35 -5.68434e-14 -35.7527 0.000771675 -0.00129103 -5 17 0 -3.87277 -3.70512 5.92495 -6.45 0 0 -3.82408 0.959626 1.26484 -6.45 0 0 -12.9946 28.8291 -10.3102 0 -32.4 -2 122.642 -78.1234 125.694 0 -25.65 2 -37.9941 -10.0643 25.4575 0.5 -1.5 2.65 5.15706 -35.545 -18.9919 4.26326e-14 -3.8 3.7 0.0907735 19.7489 -0.0433433 0 -3 2.7 -0.00311371 33.4394 0.0187076 4.9738e-14 -1.9 1.6 -1.82119e-06 5.63196e-06 2.06904e-06 -5.68434e-14 -8.3 1.9 9.93588 5.96632 -0.566425 2.84217e-14 -4.5 0 7.56947 -0.048645 0.179738 -2.84217e-14 -3.4 -2.84217e-14 6.85887 0.00133188 0.204424 0.25 -2.2 0.4 -1.82119e-06 5.63196e-06 2.06904e-06 7.10543e-15 -8.3 1 15.0574 4.21614 -0.794 2.84217e-14 -4.65 0 26.2297 -0.0199295 -0.0226717 -1.13687e-13 -3.3 -2.84217e-14 19.8119 -0.19322 0.079912 0.5 -2.15 -0.8 -1.82119e-06 5.63196e-06 2.06904e-06 -2.84217e-14 -7.75 -0.2 15.9902 9.87392 -1.85545 0 -3.8 0 20.1845 -0.0212315 -0.00977091 -2.84217e-14 -3.4 0 16.0087 0.0507637 -0.0287364 0.75 -1.75 -1.85 -1.82119e-06 5.63196e-06 2.06904e-06 -1.42109e-14 -7.15 -1 20.8159 9.57316 -2.49507 1.42109e-14 -3 0 6.68443 0.0930212 -0.00503005 2.84217e-14 -2.35 0 6.12318 0.0442548 -0.00115196 8 0 0 -14.2876 -38.8661 -11.2364 0 -45 -1 1.85755 49.036 -8.41002 -2.84217e-14 -41 -2 2.43745 10.3442 22.1855 5.68434e-14 -7.5 12.5 6.35448e-11 1.33466e-08 2.22639e-14 0 -8.67362e-19 4 -6.13978 -8.61772 1.4237 -8 0 5.68434e-14 -11.3911 -48.1344 -17.475 0 -45 -1 -1.80588 68.615 2.80871 0 -41 -2 -1.26911 2.38414 2.26348 0 -7.5 12.5 8.82781e-32 7.95139e-16 -6.36111e-15 0 0 4 -2.85819 -0.441669 17.6177 
-149.561 72.3102 470.681 -6.95077 17.2794 -155.149 0 8 0 3.48658 14.3509 9.41587 0 8 0 1.75988 4.18254 9.73848 5.68434e-14 8 -5.68434e-14 4.07945 5.03612 -34.4006 0 8 0 0.965617 2.0501 4.87387 0 17 0 7.44371 -1.66434 -22.4499 -2.84217e-14 10.8 5.68434e-14 1.54197 -9.93811 -53.7667 5 17 -5.68434e-14 -10.2863 -4.69982 10.9295 6.45 2.84217e-14 0 1.1354 2.46481 -0.404931 6.45 2.84217e-14 0 42.7182 -35.2991 0.146194 5.68434e-14 -32.4 -2 -63.5488 -61.1218 -63.6314 -4.26326e-14 -25.65 2 45.0659 -9.64331 -42.3916 -0.5 -1.5 2.65 -13.144 -21.1695 2.84501 -5.68434e-14 -3.8 3.7 -0.0753036 14.041 0.0251341 0 -3 2.7 -0.00668106 -0.113557 0.00721848 5.68434e-14 -1.9 1.6 -1.83295e-06 5.42485e-06 -1.77501e-06 -5.68434e-14 -8.3 1.9 -3.29323 14.9487 0.559023 -5.68434e-14 -4.5 5.68434e-14 -55.9402 -0.00712844 0.0287466 -2.84217e-14 -3.4 0 -38.8769 -0.0178462 0.0152535 -0.25 -2.2 0.4 -1.83295e-06 5.42485e-06 -1.77501e-06 0 -8.3 1 -32.1022 20.2995 7.53815 0 -4.65 0 -43.593 -0.0028628 0.00457285 8.52651e-14 -3.3 -5.68434e-14 -30.3144 -0.00161641 -0.00239281 -0.5 -2.15 -0.8 -1.83295e-06 5.42485e-06 -1.77501e-06 0 -7.75 -0.2 -50.4548 19.2309 12.8873 -2.84217e-14 -3.8 0 -56.9653 0.0068143 0.000930813 5.68434e-14 -3.4 0 -39.6355 0.00563816 0.00889031 -0.75 -1.75 -1.85 -1.83295e-06 5.42485e-06 -1.77501e-06 5.68434e-14 -7.15 -1 -77.64 12.6778 19.252 2.84217e-14 -3 0 -51.6909 -0.00333012 0.000963714 0 -2.35 0 -35.6676 -0.00172258 -0.00129103 -5 17 0 -3.82265 -3.69599 5.95996 -6.45 0 0 -3.8284 0.960716 1.29807 -6.45 -1.42109e-14 5.68434e-14 -12.8738 28.8542 -10.3255 0 -32.4 -2 123.753 -78.1151 126.96 0 -25.65 2 -37.9152 -10.3735 25.8413 0.5 -1.5 2.65 5.05738 -35.4826 -19.0059 5.68434e-14 -3.8 3.7 0.0908053 19.7885 -0.0433541 -1.42109e-14 -3 2.7 -0.00315896 33.5549 0.0187326 4.9738e-14 -1.9 1.6 -1.82119e-06 5.63196e-06 2.06904e-06 -6.39488e-14 -8.3 1.9 9.85251 5.96875 -0.566427 2.13163e-14 -4.5 2.84217e-14 7.58483 -0.048645 0.179738 -1.42109e-14 -3.4 0 6.87146 0.00133188 0.204424 0.25 -2.2 0.4 -1.82119e-06 5.63196e-06 2.06904e-06 -7.10543e-15 -8.3 1 14.9212 4.31859 -0.800787 2.84217e-14 -4.65 2.84217e-14 25.9863 -0.0199295 -0.0226717 -1.13687e-13 -3.3 0 19.6635 -0.194895 0.079912 0.5 -2.15 -0.8 -1.82119e-06 5.63196e-06 2.06904e-06 -3.55271e-14 -7.75 -0.2 16.0244 9.85715 -1.86009 0 -3.8 2.84217e-14 20.3417 -0.0212315 -0.00977091 -2.84217e-14 -3.4 0 16.111 0.0507637 -0.0287364 0.75 -1.75 -1.85 -1.82119e-06 5.63196e-06 2.06904e-06 -3.55271e-14 -7.15 -1 20.8415 9.61875 -2.50839 4.26326e-14 -3 0 6.69727 0.0930212 -0.00503005 2.84217e-14 -2.35 0 6.13397 0.0442548 -0.00115196 8 2.84217e-14 -5.68434e-14 -14.0418 -38.7252 -11.1174 5.68434e-14 -45 -1 1.79297 48.6584 -8.54895 -2.84217e-14 -41 -2 2.20427 10.5088 22.038 -5.68434e-14 -7.5 12.5 6.35448e-11 1.33466e-08 2.8625e-14 5.68434e-14 0 4 -6.00263 -8.83442 1.88635 -8 0 -5.68434e-14 -11.1747 -48.1068 -17.2742 2.84217e-14 -45 -1 -1.85613 68.4643 2.89629 0 -41 -2 -1.23269 2.43254 2.16873 -5.68434e-14 -7.5 12.5 3.97569e-16 7.95139e-16 -3.18055e-15 5.68434e-14 3.55271e-15 4 -2.93844 -0.45661 17.6164 
-149.676 72.4155 470.694 -6.98407 17.261 -155.334 0 8 0 3.47169 14.3515 9.40252 0 8 -5.68434e-14 1.74804 4.19272 9.78894 0 8 -2.84217e-14 4.08873 5.05679 -34.5641 -2.84217e-14 8 0 0.963085 2.05452 4.89708 0 17 5.68434e-14 7.43693 -1.72452 -22.4298 0 10.8 0 1.51329 -9.96816 -53.7276 5 17 0 -10.2415 -4.7018 10.9707 6.45 0 0 1.1397 2.46386 -0.405607 6.45 4.26326e-14 0 42.9475 -35.4165 0.139639 0 -32.4 -2 -63.9344 -61.0791 -63.8434 -4.26326e-14 -25.65 2 45.3036 -9.39672 -42.0508 -0.5 -1.5 2.65 -14.3301 -20.766 2.06535 -2.84217e-14 -3.8 3.7 -0.0745088 13.8174 0.0201759 0 -3 2.7 -0.00668106 -0.113557 0.00721848 0 -1.9 1.6 -1.83295e-06 5.42485e-06 -1.77501e-06 0 -8.3 1.9 -3.17025 14.6698 0.532972 0 -4.5 0 -55.0807 -0.0115612 0.0336445 0 -3.4 5.68434e-14 -38.221 -0.0226723 0.0150388 -0.25 -2.2 0.4 -1.83295e-06 5.42485e-06 -1.77501e-06 0 -8.3 1 -31.41 20.4135 7.40721 2.84217e-14 -4.65 0 -43.4015 -0.0028628 0.00457285 5.68434e-14 -3.3 0 -30.1923 -0.00161641 -0.00239281 -0.5 -2.15 -0.8 -1.83295e-06 5.42485e-06 -1.77501e-06 0 -7.75 -0.2 -51.2366 19.1624 13.0843 -2.84217e-14 -3.8 0 -56.2642 0.00888346 0.000930813 2.84217e-14 -3.4 5.68434e-14 -39.1095 0.00563816 0.00889031 -0.75 -1.75 -1.85 -1.83295e-06 5.42485e-06 -1.77501e-06 5.68434e-14 -7.15 -1 -78.6974 11.9402 19.1633 2.84217e-14 -3 -5.68434e-14 -51.3426 -0.00764236 0.00317529 0 -2.35 -5.68434e-14 -35.4299 -0.00553594 -0.00129103 -5 17 0 -3.77454 -3.69306 5.99884 -6.45 0 0 -3.83253 0.961782 1.32881 -6.45 -1.42109e-14 -5.68434e-14 -12.7648 28.8796 -10.3431 0 -32.4 -2 124.83 -78.0941 128.171 0 -25.65 2 -37.851 -10.6249 26.2097 0.5 -1.5 2.65 4.97506 -35.4194 -19.0237 5.68434e-14 -3.8 3.7 0.0908238 19.8115 -0.0433603 0 -3 2.7 -0.00319842 33.6554 0.0187545 7.10543e-14 -1.9 1.6 -1.82119e-06 5.63196e-06 2.06904e-06 -5.68434e-14 -8.3 1.9 9.77585 5.97267 -0.566431 1.77636e-14 -4.5 0 7.60558 -0.048645 0.179738 -4.26326e-14 -3.4 2.84217e-14 6.88848 0.00133188 0.204424 0.25 -2.2 0.4 -1.82119e-06 5.63196e-06 2.06904e-06 7.10543e-15 -8.3 1 14.8117 4.40448 -0.806823 2.84217e-14 -4.65 -2.84217e-14 25.809 -0.0199295 -0.0226717 -1.13687e-13 -3.3 0 19.5554 -0.196555 0.079912 0.5 -2.15 -0.8 -1.82119e-06 5.63196e-06 2.06904e-06 -2.84217e-14 -7.75 -0.2 16.0594 9.85999 -1.86753 0 -3.8 0 20.4712 -0.0212315 -0.00977091 -5.68434e-14 -3.4 -2.84217e-14 16.1952 0.0507637 -0.0287364 0.75 -1.75 -1.85 -1.82119e-06 5.63196e-06 2.06904e-06 -2.13163e-14 -7.15 -1 20.8792 9.67367 -2.52545 1.42109e-14 -3 0 6.70807 0.0930212 -0.00503005 0 -2.35 2.84217e-14 6.14305 0.0442548 -0.00115196 8 8.52651e-14 0 -13.7925 -38.6092 -10.9856 2.84217e-14 -45 -1 1.72875 48.3248 -8.68978 0 -41 -2 1.97926 10.6505 21.8885 0 -7.5 12.5 6.35448e-11 1.33466e-08 2.8625e-14 0 2.71051e-20 4 -5.89768 -8.98925 2.14547 -8 2.84217e-14 0 -10.9537 -48.085 -17.065 -2.84217e-14 -45 -1 -1.90377 68.3282 2.97955 0 -41 -2 -1.19548 2.47785 2.07284 0 -7.5 12.5 -4.41391e-32 7.95139e-16 3.18055e-15 0 3.55271e-15 4 -3.02276 -0.473197 17.6153 
